<?xml version="1.0" encoding="utf-8"?>
<!-- Generator: Adobe Illustrator 15.0.2, SVG Export Plug-In . SVG Version: 6.00 Build 0)  -->
<!DOCTYPE svg PUBLIC "-//W3C//DTD SVG 1.1//EN" "http://www.w3.org/Graphics/SVG/1.1/DTD/svg11.dtd">
<svg version="1.1" id="Layer_1" xmlns="http://www.w3.org/2000/svg" xmlns:xlink="http://www.w3.org/1999/xlink" x="0px" y="0px"
	 width="175.174px" height="245.088px" viewBox="5 5 175.174 245.088" enable-background="new 5 5 175.174 245.088"
	 xml:space="preserve">
<polygon fill="#CCCCFF" points="131.495,244.5 153.076,226.46 174.658,208.42 148.245,198.75 121.831,189.08 126.663,216.79 "/>
<line fill="none" stroke="#EEEEEE" stroke-width="11" x1="176.495" y1="200.5" x2="126.495" y2="245.5"/>
<polygon fill="#CCCCFF" points="94,245 72.418,226.96 50.836,208.92 77.25,199.25 103.664,189.58 98.832,217.29 "/>
<rect x="50" y="10" fill="#CCCCFF" stroke="#EEEEEE" stroke-width="10" width="50" height="50"/>
<rect x="10" y="50" fill="#CCCCFF" stroke="#EEEEEE" stroke-width="10" width="50" height="50"/>
<rect x="50" y="50" fill="#CCCCFF" stroke="#EEEEEE" stroke-width="10" width="50" height="50"/>
<rect x="100" y="50" fill="#CCCCFF" stroke="#EEEEEE" stroke-width="10" width="50" height="50"/>
<rect x="50" y="100" fill="#CCCCFF" stroke="#EEEEEE" stroke-width="10" width="50" height="50"/>
<rect x="50" y="150" fill="#CCCCFF" stroke="#EEEEEE" stroke-width="10" width="50" height="50"/>
<rect x="100" y="195" fill="#CCCCFF" stroke="#EEEEEE" stroke-width="10" width="25" height="50"/>
<rect x="125" y="150" fill="#CCCCFF" stroke="#EEEEEE" stroke-width="10" width="50" height="50"/>
<line fill="none" stroke="#EEEEEE" stroke-width="11" x1="49" y1="201" x2="99" y2="246"/>
</svg>
